<svg width="32" height="32" viewBox="0 0 32 32" fill="none" xmlns="http://www.w3.org/2000/svg">
<path fill-rule="evenodd" clip-rule="evenodd" d="M16 32C24.8366 32 32 24.8366 32 16C32 7.16344 24.8366 0 16 0C7.16344 0 0 7.16344 0 16C0 24.8366 7.16344 32 16 32Z" fill="url(#paint0_linear_3_401)" stroke="none"/>
<g filter="url(#filter0_i_3_401)">
<path d="M13.5892 13.9662C13.5892 12.4385 14.8249 11.2 16.349 11.2H16.4165C17.9226 11.2 19.1056 12.4096 19.0757 13.9191L23.7307 14.0118L23.7333 13.8809L19.0783 13.7882C19.048 15.3189 17.7729 16.6 16.3828 16.6C15.0971 16.6 14.0548 17.6447 14.0548 18.9333C14.0548 20.222 15.0971 21.2667 16.3828 21.2667C20.3317 21.2667 23.6531 17.9294 23.7333 13.8809L19.0783 13.7882L19.0757 13.9191L23.7307 14.0118C23.8124 9.88922 20.5303 6.53333 16.4165 6.53333H16.349C12.2536 6.53333 8.93332 9.8612 8.93332 13.9662V23.9333C8.93332 25.222 9.97558 26.2667 11.2613 26.2667C12.547 26.2667 13.5892 25.222 13.5892 23.9333V13.9662Z" fill="url(#paint1_linear_3_401)" stroke="none"/>
</g>
<g filter="url(#filter1_i_3_401)">
<path d="M9.2 25.8666C9.93638 25.8666 10.5333 25.2697 10.5333 24.5333C10.5333 23.7969 9.93638 23.2 9.2 23.2C8.46362 23.2 7.86667 23.7969 7.86667 24.5333C7.86667 25.2697 8.46362 25.8666 9.2 25.8666Z" fill="url(#paint2_linear_3_401)" stroke="none"/>
</g>
<g filter="url(#filter2_d_3_401)">
<path fill-rule="evenodd" clip-rule="evenodd" d="M16.4 20.4C17.21 20.4 17.8667 19.7434 17.8667 18.9333C17.8667 18.1233 17.21 17.4667 16.4 17.4667C15.59 17.4667 14.9333 18.1233 14.9333 18.9333C14.9333 19.7434 15.59 20.4 16.4 20.4Z" fill="#F7F7F7" stroke="none"/>
</g>
<defs>
<filter id="filter0_i_3_401" x="8.93332" y="6.53333" width="14.8" height="19.7333" filterUnits="userSpaceOnUse" color-interpolation-filters="sRGB">
<feFlood flood-opacity="0" result="BackgroundImageFix"/>
<feBlend mode="normal" in="SourceGraphic" in2="BackgroundImageFix" result="shape"/>
<feColorMatrix in="SourceAlpha" type="matrix" values="0 0 0 0 0 0 0 0 0 0 0 0 0 0 0 0 0 0 127 0" result="hardAlpha"/>
<feOffset/>
<feGaussianBlur stdDeviation="0.5"/>
<feComposite in2="hardAlpha" operator="arithmetic" k2="-1" k3="1"/>
<feColorMatrix type="matrix" values="0 0 0 0 0 0 0 0 0 0 0 0 0 0 0 0 0 0 0.420177 0"/>
<feBlend mode="normal" in2="shape" result="effect1_innerShadow_3_401"/>
</filter>
<filter id="filter1_i_3_401" x="7.86667" y="23.2" width="2.66666" height="2.66663" filterUnits="userSpaceOnUse" color-interpolation-filters="sRGB">
<feFlood flood-opacity="0" result="BackgroundImageFix"/>
<feBlend mode="normal" in="SourceGraphic" in2="BackgroundImageFix" result="shape"/>
<feColorMatrix in="SourceAlpha" type="matrix" values="0 0 0 0 0 0 0 0 0 0 0 0 0 0 0 0 0 0 127 0" result="hardAlpha"/>
<feOffset/>
<feGaussianBlur stdDeviation="0.5"/>
<feComposite in2="hardAlpha" operator="arithmetic" k2="-1" k3="1"/>
<feColorMatrix type="matrix" values="0 0 0 0 0 0 0 0 0 0 0 0 0 0 0 0 0 0 0.420177 0"/>
<feBlend mode="normal" in2="shape" result="effect1_innerShadow_3_401"/>
</filter>
<filter id="filter2_d_3_401" x="13.9333" y="16.4667" width="4.93332" height="4.93335" filterUnits="userSpaceOnUse" color-interpolation-filters="sRGB">
<feFlood flood-opacity="0" result="BackgroundImageFix"/>
<feColorMatrix in="SourceAlpha" type="matrix" values="0 0 0 0 0 0 0 0 0 0 0 0 0 0 0 0 0 0 127 0" result="hardAlpha"/>
<feOffset/>
<feGaussianBlur stdDeviation="0.5"/>
<feColorMatrix type="matrix" values="0 0 0 0 0 0 0 0 0 0 0 0 0 0 0 0 0 0 0.159703 0"/>
<feBlend mode="normal" in2="BackgroundImageFix" result="effect1_dropShadow_3_401"/>
<feBlend mode="normal" in="SourceGraphic" in2="effect1_dropShadow_3_401" result="shape"/>
</filter>
<linearGradient id="paint0_linear_3_401" x1="0" y1="0" x2="0" y2="32" gradientUnits="userSpaceOnUse">
<stop stop-color="white"/>
<stop offset="1" stop-color="#F2F2F2"/>
</linearGradient>
<linearGradient id="paint1_linear_3_401" x1="8.93332" y1="6.53333" x2="8.93332" y2="26.2667" gradientUnits="userSpaceOnUse">
<stop stop-color="#C063D5"/>
<stop offset="1" stop-color="#5A1AA9"/>
</linearGradient>
<linearGradient id="paint2_linear_3_401" x1="7.86667" y1="23.2" x2="7.86667" y2="25.8666" gradientUnits="userSpaceOnUse">
<stop stop-color="#C063D5"/>
<stop offset="1" stop-color="#5A1AA9"/>
</linearGradient>
</defs>
</svg>
